<svg width="180" height="52" viewBox="0 0 180 52" fill="none" xmlns="http://www.w3.org/2000/svg">
<g clip-path="url(#clip0_3_2)">
<path d="M18.3097 18.2756C18.196 17.1297 17.7083 16.2396 16.8466 15.6051C15.9848 14.9706 14.8153 14.6534 13.3381 14.6534C12.3343 14.6534 11.4867 14.7955 10.7955 15.0795C10.1042 15.3542 9.57386 15.7377 9.20455 16.2301C8.8447 16.7225 8.66477 17.2812 8.66477 17.9062C8.64583 18.4271 8.75473 18.8816 8.99148 19.2699C9.23769 19.6581 9.57386 19.9943 10 20.2784C10.4261 20.553 10.9186 20.7945 11.4773 21.0028C12.036 21.2017 12.6326 21.3722 13.267 21.5142L15.8807 22.1392C17.1496 22.4233 18.3144 22.8021 19.375 23.2756C20.4356 23.7491 21.3542 24.3314 22.1307 25.0227C22.9072 25.714 23.5085 26.5284 23.9347 27.4659C24.3703 28.4034 24.5928 29.4782 24.6023 30.6903C24.5928 32.4706 24.1383 34.0142 23.2386 35.321C22.3485 36.6184 21.0606 37.6269 19.375 38.3466C17.6989 39.0568 15.6771 39.4119 13.3097 39.4119C10.9612 39.4119 8.91572 39.0521 7.1733 38.3324C5.44034 37.6127 4.08617 36.5473 3.1108 35.1364C2.14489 33.7159 1.63826 31.9593 1.59091 29.8665H7.54261C7.6089 30.8419 7.88826 31.6562 8.38068 32.3097C8.88258 32.9536 9.55019 33.4413 10.3835 33.7727C11.2263 34.0947 12.178 34.2557 13.2386 34.2557C14.2803 34.2557 15.1847 34.1042 15.9517 33.8011C16.7282 33.4981 17.3295 33.0767 17.7557 32.5369C18.1818 31.9972 18.3949 31.3769 18.3949 30.6761C18.3949 30.0227 18.2008 29.4735 17.8125 29.0284C17.4337 28.5833 16.875 28.2045 16.1364 27.892C15.4072 27.5795 14.5123 27.2955 13.4517 27.0398L10.2841 26.2443C7.83144 25.6477 5.89489 24.715 4.47443 23.446C3.05398 22.1771 2.34848 20.4678 2.35795 18.3182C2.34848 16.5568 2.81723 15.018 3.7642 13.7017C4.72064 12.3854 6.0322 11.358 7.69886 10.6193C9.36553 9.88068 11.2595 9.51136 13.3807 9.51136C15.5398 9.51136 17.4242 9.88068 19.0341 10.6193C20.6534 11.358 21.9129 12.3854 22.8125 13.7017C23.7121 15.018 24.1761 16.5426 24.2045 18.2756H18.3097ZM28.6257 39V17.1818H34.3928V21.0312H34.6484C35.103 19.7528 35.8606 18.7443 36.9212 18.0057C37.9818 17.267 39.2507 16.8977 40.728 16.8977C42.2242 16.8977 43.4979 17.2718 44.549 18.0199C45.6001 18.7585 46.3009 19.7623 46.6513 21.0312H46.8786C47.3236 19.7812 48.1286 18.7822 49.2933 18.0341C50.4676 17.2765 51.8549 16.8977 53.4553 16.8977C55.4912 16.8977 57.1437 17.5464 58.4126 18.8438C59.6911 20.1316 60.3303 21.9593 60.3303 24.3267V39H54.2933V25.5199C54.2933 24.3078 53.9714 23.3987 53.3274 22.7926C52.6835 22.1866 51.8786 21.8835 50.9126 21.8835C49.8142 21.8835 48.9571 22.2339 48.3416 22.9347C47.7261 23.6259 47.4183 24.5398 47.4183 25.6761V39H41.5518V25.392C41.5518 24.322 41.2441 23.4697 40.6286 22.8352C40.0225 22.2008 39.2223 21.8835 38.228 21.8835C37.5556 21.8835 36.9496 22.054 36.4098 22.3949C35.8795 22.7263 35.4581 23.1951 35.1456 23.8011C34.8331 24.3977 34.6768 25.0985 34.6768 25.9034V39H28.6257ZM71.3317 39.4119C69.9396 39.4119 68.6991 39.1705 67.6101 38.6875C66.5211 38.1951 65.6593 37.4706 65.0249 36.5142C64.3999 35.5483 64.0874 34.3456 64.0874 32.9062C64.0874 31.6941 64.3099 30.6761 64.755 29.8523C65.2 29.0284 65.8061 28.3655 66.5732 27.8636C67.3402 27.3617 68.2114 26.983 69.1868 26.7273C70.1716 26.4716 71.2038 26.2917 72.2834 26.1875C73.5523 26.0549 74.575 25.9318 75.3516 25.8182C76.1281 25.6951 76.6915 25.5152 77.0419 25.2784C77.3923 25.0417 77.5675 24.6913 77.5675 24.2273V24.142C77.5675 23.2424 77.2834 22.5464 76.7152 22.054C76.1565 21.5616 75.361 21.3153 74.3288 21.3153C73.2398 21.3153 72.3733 21.5568 71.7294 22.0398C71.0855 22.5133 70.6593 23.1098 70.451 23.8295L64.8544 23.375C65.1385 22.0492 65.6972 20.9034 66.5305 19.9375C67.3639 18.9621 68.4387 18.214 69.755 17.6932C71.0807 17.1629 72.6148 16.8977 74.3572 16.8977C75.5694 16.8977 76.7294 17.0398 77.8374 17.3239C78.9548 17.608 79.9444 18.0483 80.8061 18.6449C81.6773 19.2415 82.3639 20.0085 82.8658 20.946C83.3677 21.8741 83.6186 22.9867 83.6186 24.2841V39H77.88V35.9744H77.7095C77.3591 36.6562 76.8904 37.2576 76.3033 37.7784C75.7161 38.2898 75.0107 38.6922 74.1868 38.9858C73.3629 39.2699 72.4112 39.4119 71.3317 39.4119ZM73.0646 35.2358C73.9548 35.2358 74.7408 35.0606 75.4226 34.7102C76.1044 34.3504 76.6394 33.8674 77.0277 33.2614C77.416 32.6553 77.6101 31.9687 77.6101 31.2017V28.8864C77.4207 29.0095 77.1603 29.1231 76.8288 29.2273C76.5069 29.322 76.1423 29.4119 75.7351 29.4972C75.3279 29.5729 74.9207 29.6439 74.5135 29.7102C74.1063 29.767 73.737 29.8191 73.4055 29.8665C72.6953 29.9706 72.075 30.1364 71.5447 30.3636C71.0144 30.5909 70.6025 30.8987 70.3089 31.2869C70.0154 31.6657 69.8686 32.1392 69.8686 32.7074C69.8686 33.5312 70.1669 34.161 70.7635 34.5966C71.3696 35.0227 72.1366 35.2358 73.0646 35.2358ZM88.3132 39V17.1818H94.1797V20.9886H94.407C94.8047 19.6345 95.4723 18.6117 96.4098 17.9205C97.3473 17.2197 98.4268 16.8693 99.6484 16.8693C99.9515 16.8693 100.278 16.8883 100.629 16.9261C100.979 16.964 101.287 17.0161 101.552 17.0824V22.4517C101.268 22.3665 100.875 22.2907 100.373 22.2244C99.871 22.1581 99.4117 22.125 98.995 22.125C98.1049 22.125 97.3094 22.3191 96.6087 22.7074C95.9174 23.0862 95.3681 23.6165 94.9609 24.2983C94.5632 24.9801 94.3643 25.7661 94.3643 26.6562V39H88.3132ZM117.379 17.1818V21.7273H104.24V17.1818H117.379ZM107.223 11.9545H113.274V32.2955C113.274 32.8542 113.359 33.2898 113.53 33.6023C113.7 33.9053 113.937 34.1184 114.24 34.2415C114.553 34.3646 114.912 34.4261 115.32 34.4261C115.604 34.4261 115.888 34.4025 116.172 34.3551C116.456 34.2983 116.674 34.2557 116.825 34.2273L117.777 38.7301C117.474 38.8248 117.048 38.9337 116.499 39.0568C115.949 39.1894 115.282 39.2699 114.496 39.2983C113.037 39.3551 111.759 39.161 110.661 38.7159C109.571 38.2708 108.724 37.5795 108.118 36.642C107.512 35.7045 107.214 34.5208 107.223 33.0909V11.9545ZM121.903 39V9.90909H128.054V21.9119H140.54V9.90909H146.676V39H140.54V26.983H128.054V39H121.903ZM151.747 39V9.90909H163.224C165.421 9.90909 167.296 10.3021 168.849 11.0881C170.412 11.8646 171.6 12.9678 172.415 14.3977C173.239 15.8182 173.651 17.4896 173.651 19.4119C173.651 21.3437 173.234 23.0057 172.401 24.3977C171.567 25.7803 170.36 26.8409 168.778 27.5795C167.206 28.3182 165.303 28.6875 163.068 28.6875H155.384V23.7443H162.074C163.248 23.7443 164.223 23.5833 165 23.2614C165.777 22.9394 166.354 22.4564 166.733 21.8125C167.121 21.1686 167.315 20.3684 167.315 19.4119C167.315 18.446 167.121 17.6316 166.733 16.9688C166.354 16.3059 165.772 15.804 164.986 15.4631C164.209 15.1127 163.229 14.9375 162.045 14.9375H157.898V39H151.747ZM167.457 25.7614L174.688 39H167.898L160.824 25.7614H167.457Z" fill="#39A5AA"/>
</g>
<defs>
<clipPath id="clip0_3_2">
<rect width="180" height="52" fill="white"/>
</clipPath>
</defs>
</svg>
