<svg width="63" height="52" viewBox="0 0 63 52" fill="none" xmlns="http://www.w3.org/2000/svg">
<g clip-path="url(#clip0_5_2)">
<path d="M18.3097 18.2756C18.196 17.1297 17.7083 16.2396 16.8466 15.6051C15.9848 14.9706 14.8153 14.6534 13.3381 14.6534C12.3343 14.6534 11.4867 14.7955 10.7955 15.0795C10.1042 15.3542 9.57386 15.7377 9.20455 16.2301C8.8447 16.7225 8.66477 17.2812 8.66477 17.9062C8.64583 18.4271 8.75473 18.8816 8.99148 19.2699C9.23769 19.6581 9.57386 19.9943 10 20.2784C10.4261 20.553 10.9186 20.7945 11.4773 21.0028C12.036 21.2017 12.6326 21.3722 13.267 21.5142L15.8807 22.1392C17.1496 22.4233 18.3144 22.8021 19.375 23.2756C20.4356 23.7491 21.3542 24.3314 22.1307 25.0227C22.9072 25.714 23.5085 26.5284 23.9347 27.4659C24.3703 28.4034 24.5928 29.4782 24.6023 30.6903C24.5928 32.4706 24.1383 34.0142 23.2386 35.321C22.3485 36.6184 21.0606 37.6269 19.375 38.3466C17.6989 39.0568 15.6771 39.4119 13.3097 39.4119C10.9612 39.4119 8.91572 39.0521 7.1733 38.3324C5.44034 37.6127 4.08617 36.5473 3.1108 35.1364C2.14489 33.7159 1.63826 31.9593 1.59091 29.8665H7.54261C7.6089 30.8419 7.88826 31.6562 8.38068 32.3097C8.88258 32.9536 9.55019 33.4413 10.3835 33.7727C11.2263 34.0947 12.178 34.2557 13.2386 34.2557C14.2803 34.2557 15.1847 34.1042 15.9517 33.8011C16.7282 33.4981 17.3295 33.0767 17.7557 32.5369C18.1818 31.9972 18.3949 31.3769 18.3949 30.6761C18.3949 30.0227 18.2008 29.4735 17.8125 29.0284C17.4337 28.5833 16.875 28.2045 16.1364 27.892C15.4072 27.5795 14.5123 27.2955 13.4517 27.0398L10.2841 26.2443C7.83144 25.6477 5.89489 24.715 4.47443 23.446C3.05398 22.1771 2.34848 20.4678 2.35795 18.3182C2.34848 16.5568 2.81723 15.018 3.7642 13.7017C4.72064 12.3854 6.0322 11.358 7.69886 10.6193C9.36553 9.88068 11.2595 9.51136 13.3807 9.51136C15.5398 9.51136 17.4242 9.88068 19.0341 10.6193C20.6534 11.358 21.9129 12.3854 22.8125 13.7017C23.7121 15.018 24.1761 16.5426 24.2045 18.2756H18.3097ZM27.8544 39V20.0909H31.8523V27.8928H39.968V20.0909H43.9567V39H39.968V31.1889H31.8523V39H27.8544ZM47.2528 39V20.0909H54.7131C56.1411 20.0909 57.3598 20.3464 58.3693 20.8572C59.3849 21.362 60.1574 22.0791 60.6868 23.0085C61.2223 23.9318 61.4901 25.0182 61.4901 26.2678C61.4901 27.5234 61.2192 28.6037 60.6776 29.5085C60.1359 30.4072 59.3511 31.0966 58.3232 31.5767C57.3014 32.0568 56.0642 32.2969 54.6115 32.2969H49.6165V29.0838H53.9652C54.7285 29.0838 55.3625 28.9792 55.8672 28.7699C56.3719 28.5606 56.7474 28.2467 56.9936 27.8281C57.246 27.4096 57.3722 26.8894 57.3722 26.2678C57.3722 25.6399 57.246 25.1106 56.9936 24.6797C56.7474 24.2488 56.3688 23.9226 55.858 23.701C55.3532 23.4732 54.7161 23.3594 53.9467 23.3594H51.2507V39H47.2528ZM57.4645 30.3949L62.1641 39H57.7507L53.1527 30.3949H57.4645Z" fill="#39A5AA"/>
</g>
<defs>
<clipPath id="clip0_5_2">
<rect width="63" height="52" fill="white"/>
</clipPath>
</defs>
</svg>
